<svg xmlns="http://www.w3.org/2000/svg" xmlns:xlink="http://www.w3.org/1999/xlink" id="currentIllo" data-name="Layer 1" width="1074.392" height="584.231" viewBox="0 0 1074.392 584.231" class="injected-svg DownloadModal__ImageFile-sc-p17csy-5 iIfSkb grid_media"><title>page not found</title><path d="M583.47969,324.89424c-85.94407,0-147.651,55.13938-147.651,183.79791,0,145.813,61.70691,184.41057,147.651,184.41057s151.327-42.27352,151.327-184.41057C734.80664,356.75255,669.42376,324.89424,583.47969,324.89424Zm.56495,319.80837c-59.52686,0-90.62592-34.92288-90.62592-135.9163,0-89.11185,32.37209-136.10461,91.899-136.10461s91.899,30.86774,91.899,136.10461C677.21663,607.23367,643.5715,644.70261,584.04464,644.70261Z" transform="translate(-63.054 -157.8845)" fill="#151515"/><path d="M384.36531,591.40121H348.831V486.76183A20.95585,20.95585,0,0,0,327.87517,465.806h-8.32638a20.95585,20.95585,0,0,0-20.95586,20.95585V591.40121H198.36285a11.96327,11.96327,0,0,1-10.57763-17.552l106.0824-200.78034A20.95585,20.95585,0,0,0,284.28724,344.33l-6.26231-2.9572a20.95585,20.95585,0,0,0-27.4293,9.07005L121.21416,592.4754a28.41578,28.41578,0,0,0-3.35584,13.39612v0a28.41583,28.41583,0,0,0,28.41584,28.41583H298.59293v66.16727a25.119,25.119,0,0,0,25.119,25.119h.00005a25.119,25.119,0,0,0,25.119-25.119V634.28739h35.53428a21.44307,21.44307,0,0,0,21.44307-21.44307v0A21.44307,21.44307,0,0,0,384.36531,591.40121Z" transform="translate(-63.054 -157.8845)" fill="#fff"/><path d="M1042.36183,591.40121h-35.53428V486.76183A20.95585,20.95585,0,0,0,985.87169,465.806h-8.32638a20.95585,20.95585,0,0,0-20.95586,20.95585V591.40121H856.35937a11.96326,11.96326,0,0,1-10.57763-17.552L951.86413,373.06891A20.95586,20.95586,0,0,0,942.28376,344.33l-6.26231-2.9572a20.95586,20.95586,0,0,0-27.42931,9.07005L779.21068,592.4754a28.41578,28.41578,0,0,0-3.35584,13.39612v0a28.41583,28.41583,0,0,0,28.41583,28.41583H956.58945v66.16727a25.119,25.119,0,0,0,25.119,25.119h0a25.119,25.119,0,0,0,25.119-25.119V634.28739h35.53428a21.44307,21.44307,0,0,0,21.44307-21.44307v0A21.44307,21.44307,0,0,0,1042.36183,591.40121Z" transform="translate(-63.054 -157.8845)" fill="#fff"/><path d="M394.16787,579.148H358.63358V474.50864a20.95585,20.95585,0,0,0-20.95585-20.95586h-8.32638a20.95586,20.95586,0,0,0-20.95586,20.95586V579.148H208.16541a11.96327,11.96327,0,0,1-10.57763-17.552L303.67017,360.81572a20.95586,20.95586,0,0,0-9.58037-28.73893l-6.26231-2.9572a20.95586,20.95586,0,0,0-27.42931,9.07L131.01672,580.2222a28.41582,28.41582,0,0,0-3.35584,13.39613v0a28.41583,28.41583,0,0,0,28.41583,28.41583H308.39549v66.16727a25.119,25.119,0,0,0,25.119,25.119h.00005a25.119,25.119,0,0,0,25.119-25.119V622.0342h35.53429a21.44307,21.44307,0,0,0,21.44307-21.44307v0A21.44307,21.44307,0,0,0,394.16787,579.148Z" transform="translate(-63.054 -157.8845)" fill="none" stroke="#3f3d56" stroke-miterlimit="10"/><path d="M1060.74162,579.148h-35.53428V474.50864a20.95586,20.95586,0,0,0-20.95586-20.95586H995.9251a20.95586,20.95586,0,0,0-20.95586,20.95586V579.148H874.73916a11.96327,11.96327,0,0,1-10.57763-17.552L970.24392,360.81572a20.95586,20.95586,0,0,0-9.58037-28.73893l-6.26231-2.9572a20.95586,20.95586,0,0,0-27.42931,9.07L797.59047,580.2222a28.41582,28.41582,0,0,0-3.35584,13.39613v0a28.41583,28.41583,0,0,0,28.41583,28.41583H974.96924v66.16727a25.119,25.119,0,0,0,25.119,25.119h0a25.119,25.119,0,0,0,25.119-25.119V622.0342h35.53428a21.44307,21.44307,0,0,0,21.44307-21.44307v0A21.44307,21.44307,0,0,0,1060.74162,579.148Z" transform="translate(-63.054 -157.8845)" fill="none" stroke="#3f3d56" stroke-miterlimit="10"/><path d="M603.0848,313.86637c-85.94407,0-147.651,55.13937-147.651,183.79791,0,145.813,61.70691,184.41057,147.651,184.41057s151.327-42.27352,151.327-184.41057C754.41175,345.72467,689.02887,313.86637,603.0848,313.86637Zm.565,319.80836c-59.52686,0-90.62592-34.92287-90.62592-135.91629,0-89.11185,32.37209-136.10461,91.899-136.10461s91.899,30.86774,91.899,136.10461C696.82174,596.20579,663.17661,633.67473,603.64975,633.67473Z" transform="translate(-63.054 -157.8845)" fill="none" stroke="#3f3d56" stroke-miterlimit="10"/><ellipse cx="480.946" cy="319.1155" rx="17" ry="22" fill="#151515"/><ellipse cx="573.446" cy="319.6155" rx="17" ry="22" fill="#151515"/><path d="M623.5,542.5c0,9.94-13.88,18-31,18s-31-8.06-31-18c0-8.61,10.41-15.81,24.32-17.57a50.10353,50.10353,0,0,1,6.68-.43,50.69869,50.69869,0,0,1,11.13,1.2C615.25,528.29,623.5,534.84,623.5,542.5Z" transform="translate(-63.054 -157.8845)" fill="#151515"/><ellipse cx="484.946" cy="314.1155" rx="17" ry="22" fill="none" stroke="#3f3d56" stroke-miterlimit="10"/><ellipse cx="577.446" cy="314.6155" rx="17" ry="22" fill="none" stroke="#3f3d56" stroke-miterlimit="10"/><ellipse cx="533.446" cy="379.6155" rx="31" ry="18" fill="none" stroke="#3f3d56" stroke-miterlimit="10"/><path d="M604,527.2a4.93658,4.93658,0,0,1-1.32,3.392A4.33873,4.33873,0,0,1,599.5,532h-10a4.66433,4.66433,0,0,1-4.5-4.8,4.90458,4.90458,0,0,1,.82-2.74134A47.02,47.02,0,0,1,592.5,524a47.66454,47.66454,0,0,1,11.13,1.28A5.06656,5.06656,0,0,1,604,527.2Z" transform="translate(-63.054 -157.8845)" fill="#fff"/><circle cx="484.946" cy="308.1155" r="5" fill="#fff"/><circle cx="577.946" cy="308.1155" r="5" fill="#fff"/>
<circle cx="582.946" cy="355.1155" r="5" fill="#fff" opacity="0.3"/>
<circle cx="460.946" cy="355.1155" r="5" fill="#fff" opacity="0.3"/></svg>